<svg xmlns="http://www.w3.org/2000/svg" fill="none" viewBox="0 0 24 24" strokeWidth="0" stroke="none">
  <path
    d="M9.98 10.63c1.04,0 2.02,-0.4 2.81,-1.06 0.97,-0.8 1.59,-1.78 2.86,-1.95 0.88,-0.11 1.05,0.16 1.76,0.53 0.32,0.16 1.1,0.5 1.19,0.83 -1.48,0 -2.86,1.33 -3.8,2.35 -1.09,1.18 -2.32,2.68 -2.98,3.42 0.33,-0.09 1.59,-0.95 1.9,-1.18 1.48,-1.09 2.29,-2.85 3.99,-3.79 1.68,-0.92 2.92,-0.18 5.29,0.02 -0.36,-0.5 -2.33,-0.98 -2.9,-1.14 -0.92,-0.26 -1.33,-0.44 -2.11,-0.91 -0.7,-0.43 -1.56,-1.64 -3.51,-0.61 -1.52,0.8 -1.4,1.2 -2.22,1.82 -1.82,1.37 -4.23,0.9 -5.55,-0.84 -0.32,-0.41 -2.82,-4.13 -3.23,-4.92 2.26,0.53 5.42,1.53 6.9,3.46 0.75,0.98 0.64,1.52 1.07,2.41 1.4,-0.33 -0.05,-2.66 -0.39,-3.01 -2.41,-2.51 -6.63,-3.68 -10.06,-3.96 0.53,0.45 1.23,0.97 1.69,1.49 1.25,1.41 2.51,4.29 4.11,5.82 0.61,0.59 2.01,1.22 3.18,1.22zm6.7 -2.38c0.24,0 0.45,0.2 0.45,0.45 0,0.25 -0.21,0.45 -0.45,0.45 -0.25,0 -0.45,-0.2 -0.45,-0.45 0,-0.25 0.2,-0.45 0.45,-0.45zm-6.7 6.22c0,1.85 0.55,1.41 -0.48,2.39 -0.46,0.45 -1.96,2.09 -2.36,2.2 0,-1.53 -0.68,-2.73 0.64,-5.32 0.33,-0.64 1.56,-2.13 1.65,-2.47 -1.16,0.61 -1.8,1.21 -2.41,2.44 -0.41,0.82 -0.78,1.85 -0.88,2.79 -0.19,1.77 0.02,3.83 0.91,5.4 0.34,-1.46 1.12,-2.83 2.21,-3.82 0.39,-0.36 1.39,-1.1 1.92,-1.22 -0.27,-0.96 -0.5,-1.68 -0.44,-2.7 0.09,-1.63 0.84,-2.86 0.89,-3.44 -1.25,0.66 -1.65,2.41 -1.65,3.75z" />
  <style>
    path {
      fill: #000;
    }

    @media (prefers-color-scheme: dark) {
      path {
        fill: #FFF;
      }
    }
  </style>
</svg>
